<svg width="32" height="32" viewBox="0 0 32 32" fill="none" xmlns="http://www.w3.org/2000/svg">
<path d="M8 25C9.65685 25 11 23.6569 11 22C11 20.3431 9.65685 19 8 19C6.34315 19 5 20.3431 5 22C5 23.6569 6.34315 25 8 25Z" stroke="#919191" stroke-width="1.5" stroke-miterlimit="10" stroke-linecap="round" stroke-linejoin="round"/>
<path d="M23 25C24.6569 25 26 23.6569 26 22C26 20.3431 24.6569 19 23 19C21.3431 19 20 20.3431 20 22C20 23.6569 21.3431 25 23 25Z" stroke="#919191" stroke-width="1.5" stroke-miterlimit="10" stroke-linecap="round" stroke-linejoin="round"/>
<path d="M4 14H25" stroke="#919191" stroke-width="1.5" stroke-miterlimit="10" stroke-linecap="round" stroke-linejoin="round"/>
<path d="M13 8L10 14" stroke="#919191" stroke-width="1.5" stroke-miterlimit="10" stroke-linecap="round" stroke-linejoin="round"/>
<path d="M26 22H28H30C30.6 22 31 21.6 31 21V18C31 15.8 29.2 14 27 14H25L20.2 8.4C19.4 7.5 18.3 7 17.1 7H9.5C8 7 7.6 8.9 6.9 10.2L5 14H3C1.9 14 1 14.9 1 16V21C1 21.6 1.4 22 2 22H4" stroke="#919191" stroke-width="1.5" stroke-miterlimit="10" stroke-linecap="round" stroke-linejoin="round"/>
<path d="M11 22H20" stroke="#919191" stroke-width="1.5" stroke-miterlimit="10" stroke-linecap="round" stroke-linejoin="round"/>
</svg>
