<svg width="32" height="32" viewBox="0 0 32 32" fill="none" xmlns="http://www.w3.org/2000/svg">
<path d="M18.7005 9.6L18.4005 9H16.0005H13.6005L13.4005 9.7C12.8005 11.4 11.6005 12.9 10.0005 14C3.90054 18.1 5.00054 26.5 12.0005 29.2C14.6005 30.2 17.5005 30.2 20.0005 29.2C27.0005 26.5 28.1005 18 22.1005 13.9C20.5005 12.8 19.3005 11.4 18.7005 9.6Z" stroke="#919191" stroke-width="1.5" stroke-miterlimit="10" stroke-linecap="round" stroke-linejoin="round"/>
<path d="M10.4004 3.5L13.8004 9" stroke="#919191" stroke-width="1.5" stroke-miterlimit="10" stroke-linecap="round" stroke-linejoin="round"/>
<path d="M11.5996 4.60078L12.6996 3.50078C13.2996 2.90078 14.2996 2.90078 14.8996 3.50078C15.4996 4.10078 16.4996 4.10078 17.0996 3.50078C17.6996 2.90078 18.6996 2.90078 19.2996 3.50078L20.3996 4.60078" stroke="#919191" stroke-width="1.5" stroke-miterlimit="10" stroke-linecap="round" stroke-linejoin="round"/>
<path d="M21.5992 9H18.1992L21.5992 3.5" stroke="#919191" stroke-width="1.5" stroke-miterlimit="10" stroke-linecap="round" stroke-linejoin="round"/>
<path d="M12 23H20" stroke="#919191" stroke-width="1.5" stroke-linecap="round" stroke-linejoin="round"/>
<path d="M12 20H20" stroke="#919191" stroke-width="1.5" stroke-linecap="round" stroke-linejoin="round"/>
</svg>
