<svg width="32" height="32" viewBox="0 0 32 32" fill="none" xmlns="http://www.w3.org/2000/svg">
<path d="M24.1574 27.4268L22.7407 14.5926L26.5876 10.701C28.732 8.5567 29.4467 5.69759 28.732 4.26804C27.3024 3.55326 24.4433 4.26804 22.299 6.41237L17.9259 10.2722L5.5732 8.84261C4.85842 8.69966 4.2866 8.98557 4.00069 9.55739L3.57182 10.2722C3.28591 10.9869 3.42887 11.7017 4.00069 12.1306L12.1481 16.5185L8.71821 21.4227H4.42955L3 22.8522L7.28866 25.7113L10.1478 30L11.5773 28.5704V24.2818L16.4815 20.8519L20.8694 28.9993C21.2983 29.5711 22.0131 29.7141 22.7278 29.4282L23.4426 29.1423C24.0144 28.7134 24.3003 28.1416 24.1574 27.4268Z" stroke="#919191" stroke-width="1.5" stroke-linecap="round" stroke-linejoin="round"/>
</svg>
