<svg width="33" height="33" viewBox="0 0 33 33" fill="none" xmlns="http://www.w3.org/2000/svg">
<path d="M25.9141 27.4648C26.4663 27.4648 26.9141 27.0171 26.9141 26.4648V23.7982C26.9141 22.3837 26.3522 21.0271 25.352 20.0269C24.3518 19.0267 22.9952 18.4648 21.5807 18.4648H12.2474C10.8329 18.4648 9.47635 19.0267 8.47616 20.0269C7.47597 21.0271 6.91406 22.3837 6.91406 23.7982V26.4648" stroke="#006838" stroke-width="1.5" stroke-linecap="round" stroke-linejoin="round"/>
<path d="M16.9141 14.4648C19.6755 14.4648 21.9141 12.2263 21.9141 9.46484C21.9141 6.70342 19.6755 4.46484 16.9141 4.46484C14.1526 4.46484 11.9141 6.70342 11.9141 9.46484C11.9141 12.2263 14.1526 14.4648 16.9141 14.4648Z" stroke="#006838" stroke-width="1.5" stroke-linecap="round" stroke-linejoin="round"/>
</svg>
