<svg width="33" height="33" viewBox="0 0 33 33" fill="none" xmlns="http://www.w3.org/2000/svg">
<path d="M25.0714 27.8916L23.6548 15.0574L27.5017 11.1659C29.646 9.02154 30.3608 6.16244 29.646 4.73288C28.2165 4.01811 25.3574 4.73289 23.213 6.87721L18.84 10.737L6.48726 9.30746C5.77248 9.1645 5.20066 9.45041 4.91475 10.0222L4.48588 10.737C4.19997 11.4518 4.34293 12.1666 4.91475 12.5954L13.0622 16.9834L9.63228 21.8875H5.34362L3.91406 23.3171L8.20272 26.1762L11.0618 30.4648L12.4914 29.0353V24.7466L17.3955 21.3167L21.7835 29.4642C22.2123 30.036 22.9271 30.1789 23.6419 29.893L24.3567 29.6071C24.9285 29.1782 25.2144 28.6064 25.0714 27.8916Z" stroke="#006838" stroke-width="1.5" stroke-linecap="round" stroke-linejoin="round"/>
</svg>
